<svg width="160" height="160" viewBox="0 0 160 160" fill="none" xmlns="http://www.w3.org/2000/svg">
<g clip-path="url(#clip0_611_6)">
<path d="M80 0C124.183 8.79636e-05 160 35.8173 160 80C160 124.183 124.183 160 80 160C35.8172 160 0 124.183 0 80C0 35.8172 35.8172 0 80 0ZM78.2549 14.0312C40.8599 14.0313 10.5449 44.3463 10.5449 81.7412C10.5452 119.136 40.8601 149.45 78.2549 149.45C115.65 149.45 145.965 119.136 145.965 81.7412C145.965 44.3463 115.65 14.0312 78.2549 14.0312Z" fill="#0A0A0A"/>
<path d="M100.823 48.4048C100.823 60.972 90.6355 74.5392 78.0684 74.5392C65.5012 74.5392 55.3135 60.972 55.3135 48.4048C55.3135 35.8376 65.5012 26.9219 78.0684 26.9219C90.6355 26.9219 100.823 35.8377 100.823 48.4048Z" fill="#3D3D3D"/>
<path d="M49.8292 122.926H105.378C111.225 122.926 116.402 119.147 118.184 113.577L121.173 104.235C123.362 97.3945 119.803 89.9884 113.058 87.5221C90.4519 79.2566 67.0763 80.3171 43.1307 88.2849C36.4223 90.517 32.6998 97.6925 34.5508 104.516L36.8525 113C38.4418 118.859 43.7591 122.926 49.8292 122.926Z" fill="#3D3D3D"/>
<path d="M30.3099 134.772L22.252 125.864L130.967 24.6719L139.276 32.3016L30.3099 134.772Z" fill="#0A0A0A"/>
<path opacity="0.7" d="M145.967 47.6042C146.095 47.6042 146.225 47.5753 146.347 47.5133C146.764 47.3028 146.931 46.7944 146.72 46.3783C133.93 21.0385 108.364 5.29688 79.999 5.29688C75.4755 5.29688 70.9421 5.70454 66.525 6.51023C66.0657 6.59349 65.7612 7.03354 65.8449 7.49313C65.9284 7.95288 66.367 8.25995 66.828 8.17241C71.1454 7.3858 75.5765 6.98739 79.999 6.98739C107.722 6.98739 132.71 22.3733 145.212 47.1395C145.36 47.4341 145.658 47.6042 145.967 47.6042Z" fill="white"/>
</g>
<defs>
<clipPath id="clip0_611_6">
<rect width="160" height="160" fill="white"/>
</clipPath>
</defs>
</svg>
