<svg width="184" height="120" viewBox="0 0 184 120" fill="none" xmlns="http://www.w3.org/2000/svg">
<path d="M165.284 93.7399C161.976 91.4113 158.318 89.7094 154.724 87.8851C151.592 86.2954 148.769 84.3719 145.524 82.8445C138.138 79.3669 130.711 75.5862 123.543 71.9058C123.062 71.6587 122.564 71.4737 122.06 71.3437C123.059 71.6011 123.79 56.5673 123.706 55.2194C123.372 49.894 122.177 44.6274 120.185 39.6777C118.142 34.6024 115.262 29.8689 111.685 25.7282C109.899 23.6608 107.879 21.9836 105.883 20.1716C103.72 18.2073 102.022 15.9446 99.2215 14.798C89.6503 10.8793 80.4129 7.88787 69.9012 8.76654C59.8072 9.61038 50.0224 13.5101 42.2173 19.985C35.1264 25.8673 31.0917 32.8886 27.5463 41.2156C27.2181 41.9863 26.8899 42.7571 26.5618 43.5277C22.7076 52.5801 23.7068 64.6035 26.7337 73.8201C29.9403 83.5844 36.1776 92.2425 44.456 98.3384C48.9295 101.633 53.882 105.513 59.6092 106.142C65.0645 106.742 70.0928 108.235 75.6867 108.042C86.4727 107.671 97.0297 103.731 105.411 96.9293C108.056 94.7827 110.478 92.3621 112.627 89.7181C113.026 90.052 113.466 90.3483 113.947 90.5954C115.469 90.5954 118.734 92.9334 120.13 93.6721C122.491 94.9211 124.72 96.4677 127.046 97.7884C132.828 101.071 138.974 103.445 144.816 106.444C147.496 107.82 150.176 109.196 152.856 110.572C153.613 110.961 154.405 111.316 155.142 111.744C157.914 113.358 160.887 113.596 164.118 113.638C165.174 113.651 166.267 113.612 167.219 113.158C168.097 112.739 168.777 112.005 169.423 111.279C170.937 109.576 172.444 107.705 172.822 105.459C173.232 103.023 172.211 100.52 170.643 98.6114C169.085 96.7161 167.261 95.1316 165.284 93.7399ZM109.505 76.5061C99.1895 96.5969 74.5404 104.521 54.4497 94.2063C34.3591 83.8911 26.4343 59.242 36.7495 39.1511C47.0647 19.0603 71.7139 11.1358 91.8048 21.451C111.895 31.7664 119.82 56.4153 109.505 76.5061Z" fill="#EBEBEB"/>
<path opacity="0.18" d="M102.041 86.744C118.01 70.7747 118.01 44.8835 102.041 28.9142C86.0714 12.945 60.1801 12.945 44.2108 28.9142C28.2416 44.8835 28.2416 70.7747 44.2108 86.744C60.1801 102.713 86.0714 102.713 102.041 86.744Z" fill="#F9F9F9"/>
<g opacity="0.9">
<path d="M89.497 82.5254C89.1797 82.9185 88.8456 83.2963 88.4857 83.6512C88.3131 83.8213 88.1328 83.9821 87.9548 84.1459C87.8334 84.2363 87.7164 84.333 87.5947 84.4232C87.1922 84.7219 86.7739 84.9998 86.343 85.2561C86.1267 85.3847 85.9075 85.5086 85.6854 85.6269C85.574 85.6863 85.4619 85.7443 85.3494 85.8012C85.328 85.8119 85.3048 85.8253 85.2813 85.8399C85.2833 85.8383 85.2847 85.8374 85.2867 85.8358C85.2842 85.8376 85.2815 85.8394 85.2791 85.8412C85.2396 85.8655 85.1992 85.8934 85.163 85.9193C84.7947 86.1432 84.2513 86.2687 83.8693 86.4046C83.326 86.598 82.7741 86.7674 82.2165 86.9156C81.9678 86.9817 81.718 87.0433 81.4673 87.1009C81.3271 87.1331 80.8217 87.1574 80.7167 87.2574C80.6236 87.2728 80.5306 87.2887 80.4372 87.3032C80.1517 87.3478 79.8653 87.3876 79.5787 87.4226C78.544 87.5496 77.5019 87.6162 76.4593 87.6293C75.9859 87.6354 75.5124 87.63 75.0393 87.6137C74.8029 87.6055 74.5669 87.5945 74.3308 87.5809C74.2799 87.578 74.1785 87.5833 74.1165 87.5874C74.1437 87.5851 74.1819 87.5822 74.2363 87.5778C74.6618 87.5429 74.0729 87.563 73.9658 87.5532C71.9961 87.3706 70.0446 86.9994 68.1426 86.4571C67.6878 86.3274 67.2358 86.1883 66.7871 86.0396C66.7089 86.0138 66.631 85.9872 66.5531 85.9609C66.3042 85.8608 66.0475 85.7762 65.7977 85.6789C64.8596 85.313 63.9381 84.9052 63.0357 84.4589C62.1589 84.0254 61.3003 83.5546 60.4625 83.0491C60.0307 82.7886 59.6046 82.5192 59.1842 82.2406C59.1317 82.2057 59.0795 82.1707 59.0273 82.1354C59.0317 82.141 59.036 82.1457 59.0407 82.1515C59.0355 82.145 59.0286 82.1388 59.023 82.1325C58.9782 82.1024 58.9335 82.0722 58.8884 82.0423C58.8094 81.9896 58.7717 81.9461 58.7667 81.9256C58.6353 81.8399 58.4928 81.7606 58.3897 81.6849C56.7888 80.5103 55.286 79.201 53.9073 77.7722C53.5784 77.4316 53.2565 77.0842 52.942 76.7302C52.7935 76.5632 52.6482 76.3937 52.5027 76.2243C52.4178 76.1185 52.3312 76.014 52.2466 75.9082C51.62 75.1233 51.0286 74.3105 50.4759 73.472C49.8586 72.5355 49.2907 71.5664 48.7759 70.5699C48.654 70.3337 48.5352 70.0959 48.4194 69.8568C48.3747 69.7646 48.2361 69.403 48.3756 69.7678C48.527 70.1636 48.3381 69.6798 48.3006 69.5954C48.06 69.055 47.8349 68.5076 47.6264 67.954C47.2128 66.8563 46.8511 65.7316 46.5944 64.5862C46.5911 64.571 46.585 64.5449 46.5781 64.5143C46.5629 64.427 46.5189 64.1998 46.5122 64.1531C46.4631 63.8167 46.4263 63.478 46.4069 63.1387C46.4029 63.0693 46.3683 62.7067 46.3631 62.4346C46.3667 62.413 46.3763 62.3484 46.3962 62.2132C46.4259 62.0113 46.454 61.8107 46.4908 61.6097C46.7446 60.2279 45.8637 58.6657 44.4062 58.4284C42.9962 58.1989 41.497 59.0313 41.2248 60.513C40.7228 63.2476 41.2753 65.9948 42.1486 68.5949C42.869 70.7398 43.8303 72.8237 44.963 74.7815C47.1576 78.5748 50.1332 81.9839 53.5494 84.7243C60.5384 90.3305 69.5278 93.5845 78.5373 92.9237C84.0457 92.5196 89.8807 90.5998 93.457 86.1656C94.3377 85.0737 94.4585 83.3402 93.2972 82.3656C92.2406 81.4789 90.4413 81.3548 89.497 82.5254ZM46.3986 62.1245C46.4035 62.1223 46.3703 62.3672 46.3627 62.4295C46.3596 62.2674 46.3674 62.1384 46.3986 62.1245Z" fill="white"/>
</g>
<path d="M59.0272 82.1351C58.8584 81.929 58.7579 81.8884 58.7666 81.9252C58.866 81.99 58.958 82.0585 59.0227 82.1322C59.0243 82.1331 59.0256 82.134 59.0272 82.1351Z" fill="#EBEBEB"/>
<g opacity="0.9">
<path d="M98.2099 77.4389C96.8841 76.8314 95.2783 77.2618 94.5899 78.6026C93.9474 79.8539 94.4322 81.6172 95.7536 82.2226C97.0794 82.8301 98.6852 82.3997 99.3736 81.0589C100.016 79.8077 99.5315 78.0443 98.2099 77.4389Z" fill="white"/>
</g>
<path d="M115.051 18.4104C113.042 17.6806 111.909 20.8077 113.926 21.5404C123.26 24.9305 129.796 34.4233 129.516 44.3737C129.456 46.503 132.769 46.8025 132.83 44.6554C133.152 33.2151 125.831 22.3257 115.051 18.4104Z" fill="#EBEBEB"/>
<path d="M120.967 10.2361C119.05 9.29981 117.935 12.4343 119.843 13.3661C131.354 18.9868 139.05 31.4527 138.982 44.2499C138.97 46.3746 142.284 46.6785 142.295 44.5316C142.373 30.1106 133.915 16.558 120.967 10.2361Z" fill="#EBEBEB"/>
<path d="M9.176 61.0274C7.78812 68.5376 11.0378 76.3949 17.1854 80.8749C18.9153 82.1355 20.8309 79.418 19.1005 78.157C13.8288 74.3153 11.3097 67.6933 12.4898 61.3091C12.8778 59.2073 9.56243 58.9357 9.176 61.0274Z" fill="#EBEBEB"/>
<path d="M0.553761 66.3278C0.293018 72.4142 2.78392 78.1072 7.33465 82.1295C8.9355 83.5446 10.8382 80.8153 9.24982 79.4116C5.6233 76.2061 3.66103 71.4268 3.8673 66.6095C3.95838 64.4787 0.645513 64.1815 0.553761 66.3278Z" fill="#EBEBEB"/>
<path d="M138.268 79.1111C138.151 79.1077 138.041 79.1162 137.94 79.1383C135.428 79.6899 134.587 85.2814 133.6 87.2037C131.853 90.6054 130.062 93.9846 128.25 97.3524C127.375 98.9778 128.268 99.0822 129.546 99.7048C130.52 100.179 131.494 100.655 132.468 101.13C135.301 102.512 138.133 103.893 140.965 105.275C147.435 108.431 153.904 111.587 160.374 114.742C163.641 116.336 167.025 118.519 170.469 119.667C173.036 120.523 176.194 119.62 178.523 118.161C183.005 115.353 185.229 107.662 181.781 103.256C180.578 101.719 178.871 100.671 177.196 99.6698C168.449 94.4391 159.503 89.5406 150.385 84.9878C148.168 83.8803 145.939 82.7934 143.701 81.727C142.529 81.1678 139.774 79.1553 138.268 79.1111Z" fill="#E60013"/>
</svg>
