<svg width="72" height="32" viewBox="0 0 72 32" fill="none" xmlns="http://www.w3.org/2000/svg">
<g clip-path="url(#clip0_8488_28222)">
<path d="M20.8851 12.8327C22.5323 11.9249 23.507 11.6483 24.4493 11.2916C25.8971 10.7288 27.196 10.2935 28.1142 10.0196V10.9433C28.1142 11.2302 28.3653 11.1854 28.5218 11.0192C28.6784 10.8536 31.9336 7.2763 32.2088 6.97348C32.4841 6.67135 32.464 6.40922 32.0943 6.34162C31.7246 6.27471 26.8504 5.4097 26.4379 5.33796C26.4379 5.33796 26.2007 5.28899 26.16 5.47247C26.1275 5.62078 26.6504 6.1609 26.8525 6.36301C25.6799 6.72239 23.9498 7.30873 22.0446 8.0882C20.4525 8.80559 19.2075 9.28432 17.923 9.99481C17.8782 10.0196 17.8251 10.0479 17.7658 10.0783C15.8095 11.1199 13.9588 12.3284 12.6012 13.6694C12.0659 14.1978 11.6003 14.7496 11.2051 15.3166L15.8702 15.9202C17.1939 14.7875 19.0095 13.7356 20.8844 12.8313L20.8851 12.8327Z" fill="url(#paint0_linear_8488_28222)"/>
<path d="M9.82558 21.6048C10.4029 23.8687 12.193 25.6857 14.4976 26.3479C15.2274 26.5576 15.9855 26.6604 16.7484 26.6604C18.4598 26.6604 20.1912 26.1437 21.6543 25.158C23.8886 23.6535 25.2909 21.2027 25.6027 18.2586C25.8869 15.5766 25.3978 13.2148 24.448 11.293C23.5057 11.6496 22.531 11.9262 20.8838 12.834C21.5708 14.1315 21.9681 15.8194 21.7529 17.8509C21.5101 20.1417 20.3892 21.3434 19.4911 21.9476C18.3301 22.7292 16.8264 22.9899 15.5647 22.6278C14.5611 22.3394 13.8168 21.5993 13.5747 20.6481C13.2463 19.3609 13.8657 17.8606 15.3198 16.4251C15.4916 16.2554 15.6751 16.0878 15.8689 15.9222L11.2038 15.3186C9.80213 17.3349 9.30064 19.5478 9.82558 21.6048Z" fill="url(#paint1_linear_8488_28222)"/>
<path d="M14.4979 26.3479C15.2277 26.5576 15.9858 26.6604 16.7487 26.6604C18.4601 26.6604 20.1915 26.1437 21.6546 25.158C23.8888 23.6535 25.2912 21.2026 25.603 18.2586C25.8872 15.5766 25.3981 13.2148 24.4483 11.293C23.506 11.6496 22.5313 11.9262 20.8841 12.834C21.5711 14.1315 21.9684 15.8194 21.7532 17.8509C21.5104 20.1417 20.3895 21.3434 19.4913 21.9476C18.3304 22.7292 12.1919 25.6864 14.4965 26.3479H14.4979Z" fill="url(#paint2_linear_8488_28222)"/>
<path d="M18.5728 6.14094C14.6527 5.08347 10.6877 8.1117 10.249 8.46074C10.249 8.46074 8.54038 9.76377 9.7903 11.4841C10.1849 12.027 10.983 12.2312 11.6562 12.0712C11.8128 12.0339 11.9652 11.9677 12.1011 11.8925C12.4198 11.7173 12.8571 11.3407 12.9951 11.2468C13.9732 10.5826 16.0482 9.46923 17.5657 9.87828C17.683 9.91001 17.8023 9.94933 17.923 9.99624C19.2075 9.28574 20.4525 8.80702 22.0446 8.08963C20.9851 7.13425 19.7848 6.4679 18.5728 6.14094Z" fill="url(#paint3_linear_8488_28222)"/>
<path d="M18.5728 6.14094C14.6527 5.08347 10.6877 8.1117 10.249 8.46074C10.249 8.46074 8.54038 9.76377 9.7903 11.4841C10.1849 12.027 10.983 12.2312 11.6562 12.0712C11.8128 12.0339 11.9652 11.9677 12.1011 11.8925C12.4198 11.7173 12.8571 11.3407 12.9951 11.2468C13.9732 10.5826 16.0482 9.46923 17.5657 9.87828C17.683 9.91001 17.8023 9.94933 17.923 9.99624C19.2075 9.28574 20.4525 8.80702 22.0446 8.08963C20.9851 7.13425 19.7848 6.4679 18.5728 6.14094Z" fill="url(#paint4_linear_8488_28222)"/>
<path d="M27.6846 18.2371V18.2199C27.6846 17.199 28.4613 16.7271 29.5698 16.7271C30.0409 16.7271 30.3817 16.8058 30.7128 16.9189V16.8403C30.7128 16.2905 30.3727 15.9849 29.7091 15.9849C29.3429 15.9849 29.0455 16.0373 28.7924 16.116C28.7138 16.1422 28.6613 16.1511 28.6006 16.1511C28.295 16.1511 28.0509 15.9152 28.0509 15.6103C28.0509 15.3744 28.1992 15.1737 28.4089 15.0958C28.8276 14.9385 29.2815 14.8516 29.9016 14.8516C30.6259 14.8516 31.1494 15.0433 31.4812 15.3751C31.8303 15.7242 31.9875 16.2394 31.9875 16.8679V18.9973C31.9875 19.3553 31.6999 19.6346 31.3419 19.6346C30.9577 19.6346 30.7045 19.3642 30.7045 19.0849V19.0759C30.3817 19.4339 29.9368 19.6691 29.2904 19.6691C28.4089 19.6691 27.6846 19.1628 27.6846 18.2378V18.2371ZM30.7307 17.9315V17.6956C30.5038 17.5908 30.2072 17.5211 29.8843 17.5211C29.3173 17.5211 28.9676 17.748 28.9676 18.1667V18.184C28.9676 18.542 29.2642 18.751 29.6919 18.751C30.3113 18.751 30.7307 18.4109 30.7307 17.9308V17.9315Z" fill="#ED0677"/>
<path d="M33.1306 15.5145C33.1306 15.1482 33.4272 14.8509 33.7942 14.8509C34.1611 14.8509 34.4577 15.1475 34.4577 15.5145V15.5669C34.7633 15.1744 35.1558 14.8164 35.8277 14.8164C36.8314 14.8164 37.4163 15.48 37.4163 16.5533V18.9711C37.4163 19.3374 37.1197 19.6347 36.7527 19.6347C36.3857 19.6347 36.0891 19.3381 36.0891 18.9711V16.9727C36.0891 16.3443 35.7925 16.0215 35.2862 16.0215C34.7799 16.0215 34.4571 16.3443 34.4571 16.9727V18.9711C34.4571 19.3374 34.1604 19.6347 33.7935 19.6347C33.4265 19.6347 33.1299 19.3381 33.1299 18.9711V15.5152L33.1306 15.5145Z" fill="#ED0677"/>
<path d="M38.7872 18.2558V16.0388H38.7438C38.4299 16.0388 38.1768 15.7857 38.1768 15.4718C38.1768 15.1579 38.4299 14.9048 38.7438 14.9048H38.7872V14.3198C38.7872 13.9536 39.0838 13.6562 39.4508 13.6562C39.8178 13.6562 40.1144 13.9529 40.1144 14.3198V14.9048H40.6994C41.0132 14.9048 41.2664 15.1579 41.2664 15.4718C41.2664 15.7857 41.0132 16.0388 40.6994 16.0388H40.1144V18.0372C40.1144 18.3428 40.2455 18.4911 40.5421 18.4911C40.5855 18.4911 40.6731 18.4821 40.6994 18.4821C40.996 18.4821 41.2491 18.7263 41.2491 19.0319C41.2491 19.2678 41.0919 19.4595 40.9084 19.5292C40.6642 19.6251 40.4372 19.6603 40.1489 19.6603C39.337 19.6603 38.7872 19.3375 38.7872 18.2552V18.2558Z" fill="#ED0677"/>
<path d="M44.277 19.6864C42.8718 19.6864 41.833 18.7 41.833 17.2686V17.2514C41.833 15.9159 42.7842 14.8164 44.1459 14.8164C45.7083 14.8164 46.3974 16.0994 46.3974 17.0679C46.3974 17.4521 46.127 17.7053 45.778 17.7053H43.1512C43.2823 18.3075 43.701 18.622 44.2942 18.622C44.6605 18.622 44.9661 18.5089 45.2372 18.3082C45.3331 18.2385 45.4207 18.2033 45.56 18.2033C45.8566 18.2033 46.0746 18.4303 46.0746 18.7269C46.0746 18.9014 45.996 19.0325 45.9001 19.1194C45.4896 19.4684 44.9578 19.6864 44.277 19.6864ZM45.1323 16.8762C45.0537 16.2829 44.7046 15.8815 44.1459 15.8815C43.5872 15.8815 43.2381 16.274 43.1333 16.8762H45.1316H45.1323Z" fill="#ED0677"/>
<path d="M47.4102 15.5152C47.4102 15.1489 47.7068 14.8516 48.0737 14.8516C48.4407 14.8516 48.7373 15.1482 48.7373 15.5152V15.7248C48.9291 15.271 49.2436 14.8523 49.6361 14.8523C50.0286 14.8523 50.2818 15.1227 50.2818 15.4979C50.2818 15.8469 50.0548 16.0566 49.7844 16.1173C49.1126 16.2746 48.7373 16.7892 48.7373 17.7322V18.9717C48.7373 19.338 48.4407 19.6353 48.0737 19.6353C47.7068 19.6353 47.4102 19.3387 47.4102 18.9717V15.5158V15.5152Z" fill="#ED0677"/>
<path d="M50.5603 18.2371V18.2199C50.5603 17.199 51.337 16.7271 52.4455 16.7271C52.9166 16.7271 53.2574 16.8058 53.5885 16.9189V16.8403C53.5885 16.2905 53.2477 15.9849 52.5848 15.9849C52.2185 15.9849 51.9212 16.0373 51.6681 16.116C51.5894 16.1422 51.537 16.1511 51.4763 16.1511C51.1707 16.1511 50.9265 15.9152 50.9265 15.6103C50.9265 15.3744 51.0749 15.1737 51.2846 15.0958C51.7033 14.9385 52.1572 14.8516 52.7766 14.8516C53.5009 14.8516 54.0244 15.0433 54.3562 15.3751C54.7053 15.7242 54.8625 16.2394 54.8625 16.8679V18.9973C54.8625 19.3553 54.5742 19.6346 54.2169 19.6346C53.8327 19.6346 53.5795 19.3642 53.5795 19.0849V19.0759C53.2567 19.4339 52.8118 19.6691 52.1654 19.6691C51.2839 19.6691 50.5596 19.1628 50.5596 18.2378L50.5603 18.2371ZM53.6064 17.9315V17.6956C53.3795 17.5908 53.0829 17.5211 52.76 17.5211C52.193 17.5211 51.8433 17.748 51.8433 18.1667V18.184C51.8433 18.542 52.1399 18.751 52.5676 18.751C53.187 18.751 53.6064 18.4109 53.6064 17.9308V17.9315Z" fill="#FFCB08"/>
<path d="M55.9642 21.0055C55.5365 21.0055 55.2227 20.831 55.2227 20.4647C55.2227 20.1419 55.4586 19.9322 55.7372 19.9322H55.7455C55.938 19.9322 56.0684 19.8101 56.0684 19.4955V15.5154C56.0684 15.1491 56.365 14.8518 56.7319 14.8518C57.0989 14.8518 57.3955 15.1484 57.3955 15.5154V19.5038C57.3955 20.5337 56.8547 21.0048 55.9814 21.0048H55.9642V21.0055ZM55.9904 13.7874C55.9904 13.4032 56.3132 13.168 56.7326 13.168C57.152 13.168 57.4742 13.4039 57.4742 13.7874V13.8047C57.4742 14.1889 57.1513 14.4331 56.7326 14.4331C56.3139 14.4331 55.9904 14.1889 55.9904 13.8047V13.7874Z" fill="#FFCB08"/>
<path d="M58.364 18.2371V18.2199C58.364 17.199 59.1407 16.7271 60.2492 16.7271C60.7203 16.7271 61.0611 16.8058 61.3922 16.9189V16.8403C61.3922 16.2905 61.0514 15.9849 60.3885 15.9849C60.0223 15.9849 59.7249 16.0373 59.4718 16.116C59.3932 16.1422 59.3407 16.1511 59.28 16.1511C58.9744 16.1511 58.7303 15.9152 58.7303 15.6103C58.7303 15.3744 58.8786 15.1737 59.0883 15.0958C59.507 14.9385 59.9609 14.8516 60.5803 14.8516C61.3046 14.8516 61.8282 15.0433 62.1599 15.3751C62.509 15.7242 62.6663 16.2394 62.6663 16.8679V18.9973C62.6663 19.3553 62.3779 19.6346 62.0206 19.6346C61.6364 19.6346 61.3832 19.3642 61.3832 19.0849V19.0759C61.0604 19.4339 60.6155 19.6691 59.9691 19.6691C59.0876 19.6691 58.3633 19.1628 58.3633 18.2378L58.364 18.2371ZM61.4101 17.9315V17.6956C61.1832 17.5908 60.8866 17.5211 60.5637 17.5211C59.9967 17.5211 59.647 17.748 59.647 18.1667V18.184C59.647 18.542 59.9436 18.751 60.3713 18.751C60.9907 18.751 61.4101 18.4109 61.4101 17.9308V17.9315Z" fill="#FFCB08"/>
</g>
<defs>
<linearGradient id="paint0_linear_8488_28222" x1="13.5504" y1="25.3546" x2="23.1552" y2="8.65315" gradientUnits="userSpaceOnUse">
<stop stop-color="#FFCB08"/>
<stop offset="1" stop-color="#ED0677"/>
</linearGradient>
<linearGradient id="paint1_linear_8488_28222" x1="13.8699" y1="25.5401" x2="23.4754" y2="8.83866" gradientUnits="userSpaceOnUse">
<stop stop-color="#FFCB08"/>
<stop offset="1" stop-color="#ED0677"/>
</linearGradient>
<linearGradient id="paint2_linear_8488_28222" x1="16.7708" y1="13.7397" x2="19.083" y2="18.3627" gradientUnits="userSpaceOnUse">
<stop stop-opacity="0.3"/>
<stop offset="1" stop-color="#000600" stop-opacity="0"/>
</linearGradient>
<linearGradient id="paint3_linear_8488_28222" x1="8.04303" y1="22.1878" x2="17.6485" y2="5.48632" gradientUnits="userSpaceOnUse">
<stop stop-color="#FFCB08"/>
<stop offset="1" stop-color="#ED0677"/>
</linearGradient>
<linearGradient id="paint4_linear_8488_28222" x1="20.5374" y1="11.8739" x2="15.6633" y2="9.54442" gradientUnits="userSpaceOnUse">
<stop stop-opacity="0.3"/>
<stop offset="1" stop-color="#000600" stop-opacity="0"/>
</linearGradient>
<clipPath id="clip0_8488_28222">
<rect width="72" height="32" fill="white"/>
</clipPath>
</defs>
</svg>
