<svg width="72" height="32" viewBox="0 0 72 32" fill="none" xmlns="http://www.w3.org/2000/svg">
<g clip-path="url(#clip0_8488_28237)">
<path d="M17.1915 20.02C17.1915 19.3538 17.1988 17.5731 17.1823 17.3537C17.1967 14.704 15.2701 12.8349 14.053 12.9806C13.2108 13.0537 12.505 13.3971 12.126 14.385C11.7748 15.3057 12.0888 16.5304 13.2566 16.8177C14.5054 17.1263 15.2346 17.3831 15.7623 17.7453C16.4089 18.1888 16.9367 19.0361 16.9507 20.021" fill="#0060AF"/>
<path d="M17.69 24.0469C15.4881 24.0469 13.2253 23.5045 10.9654 22.4319L10.91 22.4047L10.8834 22.3482C9.8693 20.2075 9.33301 17.8661 9.33301 15.5754C9.33301 13.2881 9.8473 11.0469 10.8622 8.90912L10.8901 8.85231L10.9466 8.82398C13.0371 7.83367 15.2859 7.33203 17.6327 7.33203C19.8189 7.33203 22.1536 7.89048 24.3835 8.94981L24.4408 8.97528L24.4671 9.03314C25.5007 11.2133 26.0457 13.5541 26.0457 15.8068C26.0457 18.0509 25.5224 20.294 24.4876 22.4728L24.4604 22.53L24.4028 22.5566C22.3442 23.5311 20.0228 24.0469 17.69 24.0469ZM11.1746 22.1384C13.3699 23.1711 15.5594 23.6926 17.69 23.6926C19.9491 23.6926 22.1958 23.1988 24.1957 22.2627C25.1892 20.1514 25.6928 17.9785 25.6928 15.8068C25.6928 13.6264 25.1672 11.3582 24.173 9.24229C22.009 8.225 19.749 7.68554 17.6327 7.68554C15.3606 7.68554 13.1829 8.16744 11.1556 9.11813C10.1824 11.1902 9.68712 13.3615 9.68712 15.5754C9.68712 17.7935 10.2019 20.0625 11.1746 22.1384Z" fill="#0060AF"/>
<path d="M16.67 20.0205C16.6741 19.1666 16.1974 18.4115 15.5745 18.0057C15.0219 17.6471 14.2801 17.4114 13.0833 17.1079C12.7134 17.0133 12.3264 16.8031 12.2066 16.5352C11.8897 16.8545 11.8322 17.5723 11.8879 17.9918C11.9527 18.4774 12.5201 19.2775 13.3743 19.3089C13.896 19.3298 14.5556 19.1966 14.8718 19.1294C15.4175 19.0115 16.2808 19.3533 16.4182 20.0195" fill="#0060AF"/>
<path d="M17.6326 8.85156C16.1841 8.85156 14.933 9.80677 14.9375 11.4597C14.942 12.8496 16.0598 13.5937 16.4587 14.1252C17.0614 14.9261 17.3877 15.874 17.4216 17.3246C17.448 18.479 17.4466 19.6189 17.4525 20.0229H17.7722C17.7667 19.6002 17.7522 18.3901 17.7688 17.2888C17.7905 15.8379 18.1285 14.9261 18.7315 14.1252C19.1338 13.5937 20.2507 12.8496 20.2531 11.4597C20.2586 9.80677 19.0082 8.85156 17.561 8.85156" fill="#0060AF"/>
<path d="M18.0008 20.02C18.0008 19.3538 17.9932 17.5731 18.0094 17.3537C17.9952 14.704 19.9205 12.8349 21.1387 12.9806C21.9809 13.0537 22.686 13.3971 23.066 14.385C23.4169 15.3057 23.1011 16.5304 21.9346 16.8177C20.6853 17.1263 19.957 17.3831 19.4279 17.7453C18.7821 18.1888 18.2912 19.0361 18.2761 20.021" fill="#0060AF"/>
<path d="M18.5225 20.0205C18.518 19.1666 18.9944 18.4115 19.6156 18.0057C20.1704 17.6471 20.9131 17.4114 22.1088 17.1079C22.4795 17.0133 22.8661 16.8031 22.9837 16.5352C23.3021 16.8545 23.3596 17.5723 23.3038 17.9918C23.2376 18.4774 22.6718 19.2775 21.8191 19.3089C21.2975 19.3298 20.6345 19.1966 20.3196 19.1294C19.7761 19.0115 18.9104 19.3533 18.7723 20.0195" fill="#0060AF"/>
<path d="M18.9685 22.7766L18.7832 21.4241L19.2306 21.3563C19.3395 21.3414 19.4721 21.3604 19.5252 21.4287C19.5838 21.4999 19.6017 21.5589 19.613 21.6523C19.6299 21.7679 19.5965 21.9015 19.4663 21.9681V21.9722C19.6117 21.9722 19.6995 22.0766 19.725 22.2529C19.7288 22.2901 19.7398 22.3801 19.7288 22.4551C19.6992 22.6337 19.5927 22.6911 19.4129 22.7163L18.9685 22.7766ZM19.2565 22.5344C19.3096 22.5268 19.3633 22.524 19.4054 22.4972C19.4697 22.4551 19.4639 22.3652 19.455 22.2984C19.4325 22.1517 19.3942 22.0959 19.2386 22.119L19.1408 22.134L19.2027 22.5419L19.2565 22.5344ZM19.1628 21.9095C19.222 21.8999 19.3023 21.8928 19.3358 21.8366C19.3533 21.7991 19.3757 21.7692 19.3609 21.6857C19.3427 21.5867 19.3099 21.5254 19.1842 21.5492L19.0671 21.568L19.1132 21.9146" fill="#0060AF"/>
<path d="M20.9069 21.9651C20.9103 21.9903 20.9144 22.0183 20.9159 22.0434C20.9521 22.2901 20.9069 22.4943 20.6296 22.5505C20.2197 22.6295 20.1412 22.3748 20.069 22.0183L20.0306 21.8254C19.9741 21.4842 19.9498 21.226 20.3495 21.1464C20.5747 21.1053 20.7236 21.1949 20.7856 21.4191C20.7952 21.4526 20.8073 21.4858 20.8118 21.5194L20.5666 21.57C20.5383 21.4858 20.5008 21.3352 20.3905 21.3479C20.1925 21.3717 20.2579 21.6181 20.2782 21.721L20.3519 22.0912C20.374 22.2032 20.418 22.382 20.5894 22.3475C20.7285 22.3197 20.6679 22.103 20.6555 22.0142" fill="#0060AF"/>
<path d="M21.3007 22.3751L21.2158 20.9755L21.5452 20.875L22.2358 22.0923L21.9765 22.1699L21.8128 21.8605L21.5249 21.947L21.5621 22.2987L21.3007 22.3751ZM21.5008 21.721L21.7089 21.6607L21.4325 21.0944" fill="#0060AF"/>
<path d="M13.1645 21.3152C13.2676 20.9852 13.3599 20.7423 13.7532 20.8502C13.9637 20.9089 14.0942 21.0017 14.0881 21.2463C14.087 21.3007 14.0691 21.3562 14.0573 21.41L13.8124 21.3423C13.8445 21.2073 13.8649 21.1002 13.6985 21.0489C13.5063 20.9962 13.4594 21.2293 13.4329 21.3299L13.3333 21.6969C13.3016 21.8058 13.2636 21.9859 13.4329 22.0323C13.5727 22.07 13.6575 21.9327 13.7082 21.7323L13.5368 21.6869L13.5961 21.4746L13.9988 21.6042L13.8076 22.3114L13.6223 22.261L13.664 22.1116H13.6587C13.5735 22.2338 13.4693 22.2466 13.3782 22.2291C12.9754 22.1201 13.0174 21.8569 13.1136 21.5052" fill="#0060AF"/>
<path d="M14.6639 21.9131L14.5426 22.4884L14.2695 22.4293L14.5605 21.0859L15.026 21.1911C15.2984 21.2499 15.3807 21.3712 15.3421 21.6209C15.3201 21.7642 15.2494 21.9186 15.0769 21.9061L15.0751 21.9038C15.221 21.9549 15.2333 22.0284 15.2079 22.1556C15.1969 22.2097 15.1211 22.538 15.1734 22.5911L15.1752 22.6313L14.8926 22.5576C14.8809 22.4666 14.9208 22.303 14.9366 22.2124C14.9526 22.1322 14.9781 22.0192 14.8967 21.9767C14.8329 21.9428 14.8093 21.9445 14.7373 21.9279L14.6639 21.9131ZM14.7104 21.705L14.8943 21.7545C15.0059 21.7707 15.068 21.7128 15.09 21.5779C15.1099 21.4542 15.0841 21.4059 14.9839 21.3819L14.7868 21.342" fill="#0060AF"/>
<path d="M16.4152 21.3878L16.6852 21.4192L16.5689 22.3635C16.5124 22.663 16.3966 22.7939 16.0672 22.7529C15.7321 22.7106 15.6525 22.5579 15.6729 22.2561L15.79 21.3125L16.0621 21.3437L15.9453 22.2662C15.933 22.3664 15.9098 22.5148 16.088 22.5328C16.2461 22.5448 16.282 22.4401 16.2997 22.3099" fill="#0060AF"/>
<path d="M16.9824 22.8036L17.0636 21.4531L17.5825 21.4756C17.8276 21.4876 17.8918 21.6879 17.8841 21.879C17.877 21.9951 17.8407 22.1249 17.7395 22.1953C17.6564 22.2551 17.5498 22.2692 17.4508 22.2644L17.2817 22.2551L17.2479 22.821L16.9824 22.8036ZM17.2894 22.0491L17.4268 22.0568C17.5385 22.0608 17.6124 22.0167 17.6221 21.8528C17.6275 21.6953 17.568 21.6686 17.4233 21.6623L17.3144 21.6585" fill="#0060AF"/>
<path d="M53.575 10.1565L51.513 13.8991C50.7347 13.2671 49.7843 12.802 48.5717 12.802C45.7022 12.802 44.5366 14.941 44.5366 16.4477C44.5366 17.5661 45.269 19.2163 47.8222 19.2163C48.8939 19.2163 50.4175 18.4707 50.856 18.1315L48.8166 22.4735C47.8445 22.6675 47.5252 22.7877 46.7023 22.8132C42.1324 22.9495 40.2858 20.1422 40.2871 17.2736C40.2901 13.4814 43.6617 8.86947 49.251 8.86947C49.5936 8.86947 50.0125 8.98791 50.3707 9.11916L50.7326 8.65625" fill="#0060AF"/>
<path d="M62.0832 8.77344L62.6672 22.3763H58.3216L58.3191 20.0433H55.356L54.3807 22.3763H49.668L54.595 12.6627L53.484 12.6554L55.5949 8.77344H62.0832ZM58.2909 12.9348L56.6156 16.8914H58.3414" fill="#0060AF"/>
<path d="M37.5434 8.77489C39.6954 8.78694 40.9114 9.95507 40.9114 11.6425C40.9114 13.198 39.6289 14.575 38.221 15.287C39.6705 15.8198 39.7959 17.1278 39.7959 18.0532C39.7959 20.2887 37.5526 22.3777 34.6366 22.3777H28.2773L30.758 12.7994L29.739 12.7936L31.822 8.77489C31.822 8.77489 35.7935 8.76283 37.5434 8.77489ZM35.4321 14.29C35.8773 14.29 36.6632 14.1773 36.8597 13.3158C37.0751 12.3807 36.3375 12.3555 35.9836 12.3555L34.7194 12.35L34.2785 14.2901L35.4321 14.29ZM33.6447 16.6938L33.0626 18.9294H34.5512C35.1369 18.9294 35.9351 18.6387 36.1307 17.9112C36.3239 17.1816 35.7659 16.6938 35.1823 16.6938" fill="#0060AF"/>
</g>
<defs>
<clipPath id="clip0_8488_28237">
<rect width="72" height="32" fill="white"/>
</clipPath>
</defs>
</svg>
