<svg width="24" height="24" viewBox="0 0 24 24" fill="none" xmlns="http://www.w3.org/2000/svg">
<path d="M17.58 2.30078C22.5 2.30078 24 3.79709 24 8.70498V9.81826C24 10.2851 23.628 10.6563 23.16 10.6563C22.08 10.6563 21.204 11.5301 21.204 12.6074C21.204 13.6848 22.08 14.5586 23.16 14.5586C23.628 14.5586 24 14.9297 24 15.3966C24 20.3045 22.5 21.8008 17.58 21.8008H6.42002C1.50003 21.8008 7.25179e-06 20.3045 0 15.3966V14.8339C2.35266e-05 14.3671 0.372054 13.996 0.840039 13.996C1.92002 13.996 2.796 13.1341 2.796 12.0567C2.79598 10.9794 1.92001 10.1056 0.840039 10.1056C0.372053 10.1056 2.27237e-05 9.73451 0 9.26768V8.70498C7.56142e-06 3.79709 1.50003 2.30078 6.42002 2.30078H17.58ZM18.0055 13.0975C17.9948 13.1087 17.9843 13.1201 17.9742 13.1317C17.451 13.7237 16.9064 14.2899 16.252 14.7458C15.4916 15.275 14.6157 15.488 13.7363 15.6687C12.8777 15.8452 12.0065 15.8918 11.1337 15.696C10.5826 15.5725 10.0319 15.6115 9.496 15.8139C8.72299 16.1058 8.0037 17.0965 8.88916 18.0862C9.52286 18.7946 10.3298 19.1063 11.2659 18.9691C12.9289 18.7253 14.3574 17.9435 15.6172 16.877C16.8051 15.8711 17.5183 14.5267 18.037 13.0645L18.0055 13.0975ZM9.5082 8.23643C9.68143 7.42941 9.23715 6.28897 7.92471 6.49639C6.98505 6.64514 6.28542 7.15363 5.89385 8.01377C5.19835 9.54129 5.08238 11.165 5.29766 12.8003C5.50028 14.3425 6.24494 15.6697 7.19473 16.8977V16.8972C7.18713 16.8668 7.18058 16.837 7.17197 16.8071C6.95719 16.0472 6.77585 15.2831 6.74697 14.4867C6.71354 13.5618 7.00881 12.7108 7.33301 11.8749C7.6496 11.0583 8.08217 10.3018 8.71992 9.6749C9.12263 9.27974 9.38815 8.79603 9.5082 8.23643ZM14.2566 5.51182C12.7932 4.97953 11.271 5.02653 9.74219 5.30127H9.7417C9.77208 5.30835 9.80194 5.31649 9.83232 5.32256C10.6068 5.48346 11.3687 5.67525 12.0896 6.01729C12.9264 6.41447 13.5459 7.06865 14.1386 7.74209C14.7176 8.39935 15.1897 9.13203 15.4521 9.98662C15.6177 10.526 15.9247 10.9844 16.3659 11.3492C17.0027 11.8754 18.2204 12.008 18.6424 10.7496C18.9443 9.84847 18.8151 8.99438 18.232 8.2501C17.1961 6.92852 15.8082 6.07648 14.2566 5.51182Z" fill="#DC8622"/>
</svg>
