<svg width="24" height="24" viewBox="0 0 24 24" fill="none" xmlns="http://www.w3.org/2000/svg">
<path d="M22.4893 18.5737L21.1525 7.32375C21.1091 6.95721 20.9321 6.61952 20.6554 6.37529C20.3786 6.13106 20.0215 5.99744 19.6525 6H16.4996C16.4996 4.80653 16.0255 3.66193 15.1816 2.81802C14.3377 1.97411 13.1931 1.5 11.9996 1.5C10.8062 1.5 9.66157 1.97411 8.81766 2.81802C7.97374 3.66193 7.49964 4.80653 7.49964 6H4.34308C3.97399 5.99744 3.61691 6.13106 3.34016 6.37529C3.06342 6.61952 2.88644 6.95721 2.84308 7.32375L1.5062 18.5737C1.4817 18.7837 1.50186 18.9965 1.56536 19.1981C1.62885 19.3998 1.73425 19.5857 1.87464 19.7438C2.01604 19.9025 2.18932 20.0296 2.38317 20.1168C2.57701 20.204 2.78707 20.2494 2.99964 20.25H20.9921C21.206 20.2505 21.4175 20.2056 21.6127 20.1183C21.8079 20.0311 21.9824 19.9034 22.1246 19.7438C22.2644 19.5854 22.3691 19.3993 22.4319 19.1977C22.4948 18.9961 22.5143 18.7835 22.4893 18.5737ZM8.99964 9.75C8.99964 9.94891 8.92062 10.1397 8.77997 10.2803C8.63932 10.421 8.44855 10.5 8.24964 10.5C8.05073 10.5 7.85996 10.421 7.71931 10.2803C7.57866 10.1397 7.49964 9.94891 7.49964 9.75V8.25C7.49964 8.05109 7.57866 7.86032 7.71931 7.71967C7.85996 7.57902 8.05073 7.5 8.24964 7.5C8.44855 7.5 8.63932 7.57902 8.77997 7.71967C8.92062 7.86032 8.99964 8.05109 8.99964 8.25V9.75ZM11.9996 3C12.7953 3 13.5583 3.31607 14.121 3.87868C14.6836 4.44129 14.9996 5.20435 14.9996 6H8.99964C8.99964 5.20435 9.31571 4.44129 9.87832 3.87868C10.4409 3.31607 11.204 3 11.9996 3ZM16.4996 9.75C16.4996 9.94891 16.4206 10.1397 16.28 10.2803C16.1393 10.421 15.9486 10.5 15.7496 10.5C15.5507 10.5 15.36 10.421 15.2193 10.2803C15.0787 10.1397 14.9996 9.94891 14.9996 9.75V8.25C14.9996 8.05109 15.0787 7.86032 15.2193 7.71967C15.36 7.57902 15.5507 7.5 15.7496 7.5C15.9486 7.5 16.1393 7.57902 16.28 7.71967C16.4206 7.86032 16.4996 8.05109 16.4996 8.25V9.75Z" fill="#DC8622"/>
</svg>
