<svg width="80" height="56" viewBox="0 0 80 56" fill="none" xmlns="http://www.w3.org/2000/svg">
<g clip-path="url(#clip0_8819_621)">
<path fill-rule="evenodd" clip-rule="evenodd" d="M36.5729 14.6061C37.9788 14.6776 39.5072 14.6203 40.9114 14.6203C42.354 14.6203 43.7967 14.6203 45.2393 14.6203C47.4993 14.6203 50.3789 14.5774 51.2473 17.2546C52.0792 19.819 50.5028 22.441 49.1987 23.4604C47.3219 24.9275 45.1326 25.1389 42.1849 25.0934L43.0519 21.595C43.1917 21.0752 43.9354 18.3791 43.9604 18.0947L23.8415 18.0868L20.0069 32.4387L28.163 32.4456C28.2973 32.2009 29.4344 27.7357 29.6306 27.0398L30.7152 22.9942C30.8079 22.6605 30.9725 21.8672 31.0903 21.6347L34.6303 21.6291L31.7617 32.4348C33.3019 32.492 34.9086 32.4459 36.4424 32.4459C38.0105 32.4459 39.5785 32.4459 41.1466 32.4459C44.2992 32.4459 46.8561 32.3665 49.581 31.5135C54.2749 30.0444 57.6884 26.9234 59.2686 22.476C60.1074 20.1153 60.3199 16.8417 59.5509 14.3117C57.9489 9.04153 53.0443 7.39433 47.8742 7.27603C46.3326 7.24072 44.7613 7.26873 43.2165 7.26873C41.6573 7.26873 40.0739 7.24167 38.5177 7.27277L36.5729 14.6061ZM30.4275 7.30515C28.1879 7.60971 26.4129 9.18646 25.7698 11.0899C24.8861 13.7055 26.5481 15.8106 29.2082 15.521C31.3954 15.2831 33.247 13.5593 33.8571 11.7419C34.7272 9.15021 33.0762 6.94492 30.4275 7.30515Z" fill="#FE1600"/>
<path fill-rule="evenodd" clip-rule="evenodd" d="M39.7704 39.4493C39.7864 39.1832 40.0712 38.117 40.1736 37.965C40.6898 37.9509 42.3034 37.7849 41.9077 38.8463C41.6563 39.5209 40.6073 39.4848 39.7704 39.4493ZM36.0707 43.4881L38.6541 43.5048C38.7355 43.1509 39.1616 41.5032 39.2787 41.3049L39.8588 41.2998L40.7281 43.4959L43.4968 43.504L42.4652 40.9577C42.9089 40.6907 43.8349 40.5602 44.3546 39.4079C44.7582 38.5129 44.6439 37.3606 44.0711 36.711C43.5524 36.1227 42.5855 35.8297 41.572 35.7978C40.4817 35.7635 39.2356 35.7542 38.1472 35.7899L36.0707 43.4881ZM44.4813 43.4948L51.0811 43.5044L51.6486 41.3847L47.5841 41.3728L47.7935 40.5488L49.8584 40.5455L50.3477 38.6951L48.3149 38.6821L48.4997 37.9134L52.5348 37.913L53.0995 35.7992L46.5258 35.7875L44.9787 41.5395C44.8409 42.025 44.5252 43.0194 44.4813 43.4948ZM11.7473 43.4851L18.3749 43.5047L18.9395 41.3901L14.8841 41.3726C14.978 40.1787 15.244 40.6067 17.1338 40.5567L17.6413 38.701L15.6085 38.6817C15.6123 38.4755 15.7327 38.0512 15.8129 37.9189L19.7896 37.9123C19.8904 37.7503 20.3661 36.0286 20.3756 35.8062L13.8246 35.7869L11.7473 43.4851ZM61.6099 40.5178C61.484 40.5839 60.2042 42.0955 60.1467 42.27C60.4661 42.617 61.2553 43.0846 61.8198 43.2832C62.5933 43.5554 63.2136 43.6726 64.1515 43.6466C65.7433 43.6026 67.067 42.8115 67.3483 41.4655C67.9145 38.7577 64.3686 38.668 64.0855 38.1415C63.7395 37.4985 65.1792 37.6822 65.9738 38.0472C66.2776 38.1867 66.6223 38.4785 66.8377 38.5468C67.0844 38.2356 68.1495 37.0252 68.2541 36.8132C68.0765 36.4668 66.9817 35.9955 66.5031 35.8651C65.8054 35.675 64.9075 35.5514 64.1145 35.6892C62.6623 35.9416 61.389 36.7857 61.381 38.366C61.3728 39.9819 63.0381 40.3039 64.2778 40.8254C65.1616 41.1972 64.7988 41.8192 63.3978 41.4664C63.057 41.3806 62.7085 41.2206 62.4355 41.0679C62.1195 40.8911 61.8689 40.65 61.6099 40.5178ZM53.886 40.5023C53.715 40.6416 52.4728 42.0892 52.4234 42.27C53.6952 43.6557 57.2844 44.3238 58.9372 42.7027C59.7061 41.9485 60.0631 40.4737 59.1421 39.5638C58.7691 39.1954 58.2918 38.968 57.7413 38.7506C57.3183 38.5837 56.2737 38.3153 56.3086 37.9893C56.3722 37.396 57.8849 37.8443 58.4705 38.1655C58.6907 38.2863 58.892 38.4489 59.0697 38.5408C59.269 38.4174 59.9419 37.5357 60.1769 37.2616C60.318 37.097 60.4873 36.9824 60.5361 36.7534C59.335 35.9146 57.9331 35.4307 56.3625 35.6981C54.9433 35.9396 53.6357 36.8124 53.657 38.3658C53.6862 40.5009 56.6584 40.516 56.9683 41.0819C57.2825 41.6553 56.2307 41.624 55.6064 41.4478C54.9473 41.2617 54.3234 40.8557 53.886 40.5023ZM19.038 43.4883C19.5957 43.5423 20.9198 43.4996 21.6254 43.5057C22.0866 43.5097 22.0319 43.4664 22.2471 43.2205C22.4856 42.9479 23.7178 41.4951 23.9293 41.4083L24.7521 43.5042L27.513 43.5031C27.461 43.0911 25.8809 39.7421 25.8956 39.5886C25.9666 39.4188 27.3836 37.9174 27.6243 37.6856C27.9172 37.4033 28.2086 37.0615 28.4878 36.7617C28.6497 36.5877 29.2809 35.9794 29.3381 35.7898L26.9399 35.7875C26.5986 35.7864 26.4639 35.7218 26.2766 35.9143C25.9766 36.2226 24.9675 37.4765 24.7277 37.6167L24.028 35.795L21.2635 35.7877C21.273 35.9886 22.0491 37.7427 22.1786 38.0435C22.3358 38.4087 22.4911 38.7895 22.6595 39.1646C22.8346 39.5546 22.7004 39.5253 22.1531 40.1165C21.8313 40.4641 19.2089 43.2179 19.038 43.4883ZM31.8945 39.5668C31.8755 39.325 32.2309 38.1449 32.3115 37.8569C32.7051 37.8583 33.1243 37.8364 33.4136 38.0089C33.9418 38.3238 34.0234 39.6811 31.8945 39.5668ZM28.24 43.4976L30.7978 43.503L31.3591 41.4233C32.9313 41.3364 33.6557 41.5289 34.8982 40.8219C36.6352 39.8332 37.2402 36.5728 34.3256 35.9232C33.2923 35.6928 31.4559 35.7824 30.29 35.7897L28.7378 41.5247C28.5967 42.0698 28.2855 42.9773 28.24 43.4976Z" fill="#FD1602"/>
<path d="M11.7239 47.4478L10.6866 46.0942H10.3711V48.0518H10.7093V46.6592L11.777 48.0518H12.062V46.0942H11.7239V47.4478ZM14.1377 46.0803H13.8218L12.968 48.0518H13.3172L13.5168 47.5792H14.4343L14.6311 48.0518H14.9915L14.1377 46.0803ZM14.3097 47.2744H13.6415L13.9742 46.4914L14.3097 47.2744ZM16.4158 47.5988L15.8309 46.0942H15.4539L16.2606 48.0658H16.56L17.3666 46.0942H16.9979L16.4158 47.5988ZM18.2919 46.0942V48.0518H18.6301V46.0942H18.2919ZM21.4542 47.7806V46.9584H20.6282V47.2577H21.1243V47.6258C21.0652 47.6711 20.9954 47.7069 20.915 47.7345C20.8347 47.7615 20.7483 47.775 20.6558 47.775C20.5561 47.775 20.466 47.7573 20.3856 47.7219C20.3052 47.6865 20.2359 47.6371 20.1777 47.5746C20.1195 47.5121 20.0746 47.438 20.0433 47.3518C20.0118 47.266 19.9961 47.1724 19.9961 47.0717C19.9961 46.9766 20.0123 46.8866 20.0447 46.8028C20.077 46.7184 20.1213 46.6448 20.1777 46.5814C20.2341 46.518 20.3006 46.4676 20.3773 46.4313C20.4539 46.3949 20.5367 46.3767 20.6253 46.3767C20.6863 46.3767 20.7423 46.3819 20.793 46.3921C20.8439 46.4024 20.8905 46.4163 20.9331 46.434C20.9756 46.4518 21.0162 46.4737 21.0551 46.4997C21.0938 46.5259 21.1317 46.5547 21.1687 46.5864L21.3849 46.3264C21.335 46.2835 21.2838 46.2458 21.2311 46.2131C21.1784 46.1805 21.1225 46.153 21.0633 46.1307C21.0042 46.1082 20.94 46.091 20.8707 46.079C20.8014 46.0668 20.7242 46.0607 20.6393 46.0607C20.4932 46.0607 20.3588 46.0878 20.2359 46.1418C20.113 46.1959 20.0072 46.2691 19.9185 46.3613C19.8298 46.4536 19.761 46.5613 19.712 46.6844C19.663 46.8074 19.6385 46.9379 19.6385 47.0759C19.6385 47.2194 19.6625 47.3527 19.7106 47.4758C19.7587 47.5988 19.8265 47.7055 19.9143 47.796C20.0021 47.8864 20.1079 47.9573 20.2318 48.0085C20.3556 48.0598 20.4932 48.0854 20.6448 48.0854C20.7298 48.0854 20.8111 48.0774 20.8887 48.0616C20.9663 48.0458 21.0388 48.0239 21.1064 47.9959C21.1738 47.9679 21.2366 47.9353 21.2949 47.8981C21.353 47.8608 21.4062 47.8216 21.4542 47.7806ZM23.4744 46.0803H23.1585L22.3047 48.0518H22.6539L22.8536 47.5792H23.7711L23.9679 48.0518H24.3282L23.4744 46.0803ZM23.6464 47.2744H22.9783L23.3109 46.4914L23.6464 47.2744ZM25.8052 46.4131H26.4206V46.0942H24.846V46.4131H25.4614V48.0518H25.8052V46.4131ZM28.7901 46.0942H27.3542V48.0518H28.8039V47.7414H27.6924V47.2185H28.6654V46.9081H27.6924V46.4047H28.7901V46.0942ZM32.4513 46.0803H32.1354L31.2816 48.0518H31.6309L31.8305 47.5792H32.748L32.9448 48.0518H33.3051L32.4513 46.0803ZM32.6233 47.2744H31.9552L32.2879 46.4914L32.6233 47.2744ZM35.9658 47.0703C35.9658 46.9323 35.9408 46.8036 35.8909 46.6844C35.841 46.565 35.7703 46.4615 35.6788 46.374C35.5874 46.2863 35.4784 46.2178 35.3517 46.1684C35.2252 46.119 35.0861 46.0942 34.9346 46.0942H34.2111V48.0518H34.9346C35.0861 48.0518 35.2252 48.0267 35.3517 47.9763C35.4784 47.926 35.5874 47.857 35.6788 47.7694C35.7703 47.6817 35.841 47.5779 35.8909 47.4576C35.9408 47.3373 35.9658 47.2083 35.9658 47.0703ZM35.6082 47.0759C35.6082 47.1733 35.592 47.2627 35.5597 47.3438C35.5273 47.4255 35.4816 47.4958 35.4234 47.5545C35.3651 47.6137 35.294 47.6594 35.2109 47.6925C35.1272 47.7251 35.0348 47.7414 34.9328 47.7414H34.5492V46.4047H34.9328C35.0348 46.4047 35.1272 46.4215 35.2109 46.4551C35.294 46.4891 35.3651 46.5357 35.4234 46.5958C35.4816 46.6554 35.5273 46.7263 35.5597 46.8078C35.592 46.8889 35.6082 46.9785 35.6082 47.0759ZM37.6228 47.5988L37.0379 46.0942H36.661L37.4677 48.0658H37.767L38.5737 46.0942H38.205L37.6228 47.5988ZM40.2059 46.0803H39.8898L39.0361 48.0518H39.3853L39.5849 47.5792H40.5024L40.6993 48.0518H41.0597L40.2059 46.0803ZM40.3777 47.2744H39.7097L40.0423 46.4914L40.3777 47.2744ZM43.3183 47.4478L42.2811 46.0942H41.9655V48.0518H42.3037V46.6592L43.3714 48.0518H43.6565V46.0942H43.3183V47.4478ZM46.4168 47.7386L46.1978 47.5149C46.1147 47.5932 46.0307 47.6552 45.9456 47.7009C45.8606 47.7466 45.7589 47.7694 45.6407 47.7694C45.5483 47.7694 45.4628 47.7512 45.3842 47.7149C45.3057 47.6786 45.2379 47.6286 45.1805 47.5652C45.1232 47.5018 45.0789 47.4278 45.0475 47.3429C45.016 47.2581 45.0003 47.1672 45.0003 47.0703C45.0003 46.9733 45.016 46.8829 45.0475 46.799C45.0789 46.7151 45.1232 46.6419 45.1805 46.5795C45.2379 46.517 45.3057 46.4676 45.3842 46.4313C45.4628 46.3949 45.5483 46.3767 45.6407 46.3767C45.7515 46.3767 45.8504 46.3991 45.9373 46.4438C46.0241 46.4886 46.1064 46.5473 46.184 46.62L46.403 46.3656C46.3568 46.3208 46.3078 46.2798 46.2561 46.2425C46.2044 46.2052 46.1479 46.173 46.087 46.146C46.026 46.119 45.959 46.098 45.886 46.0831C45.813 46.0682 45.7322 46.0607 45.6434 46.0607C45.4956 46.0607 45.3607 46.0873 45.2387 46.1405C45.1168 46.1936 45.0115 46.2662 44.9227 46.3585C44.834 46.4509 44.7652 46.5585 44.7162 46.6815C44.6672 46.8046 44.6427 46.936 44.6427 47.0759C44.6427 47.2175 44.6676 47.3499 44.7176 47.473C44.7675 47.596 44.8363 47.7028 44.9241 47.7932C45.0119 47.8836 45.1159 47.9549 45.236 48.0071C45.3561 48.0593 45.4873 48.0854 45.6296 48.0854C45.7202 48.0854 45.8028 48.0774 45.8776 48.0616C45.9526 48.0458 46.0214 48.0225 46.0842 47.9917C46.1471 47.9609 46.2057 47.9246 46.2602 47.8827C46.3148 47.8407 46.3669 47.7927 46.4168 47.7386ZM48.7836 46.0942H47.3477V48.0518H48.7975V47.7414H47.6858V47.2185H48.6589V46.9081H47.6858V46.4047H48.7836V46.0942ZM53.1961 47.0703C53.1961 46.9323 53.1712 46.8036 53.1213 46.6844C53.0713 46.565 53.0007 46.4615 52.9092 46.374C52.8177 46.2863 52.7087 46.2178 52.5822 46.1684C52.4555 46.119 52.3164 46.0942 52.165 46.0942H51.4414V48.0518H52.165C52.3164 48.0518 52.4555 48.0267 52.5822 47.9763C52.7087 47.926 52.8177 47.857 52.9092 47.7694C53.0007 47.6817 53.0713 47.5779 53.1213 47.4576C53.1712 47.3373 53.1961 47.2083 53.1961 47.0703ZM52.8385 47.0759C52.8385 47.1733 52.8224 47.2627 52.79 47.3438C52.7577 47.4255 52.712 47.4958 52.6537 47.5545C52.5956 47.6137 52.5243 47.6594 52.4412 47.6925C52.3576 47.7251 52.2651 47.7414 52.1631 47.7414H51.7796V46.4047H52.1631C52.2651 46.4047 52.3576 46.4215 52.4412 46.4551C52.5243 46.4891 52.5956 46.5357 52.6537 46.5958C52.712 46.6554 52.7577 46.7263 52.79 46.8078C52.8224 46.8889 52.8385 46.9785 52.8385 47.0759ZM55.6183 46.0942H54.1824V48.0518H55.6322V47.7414H54.5206V47.2185H55.4936V46.9081H54.5206V46.4047H55.6183V46.0942ZM56.6129 48.0518H57.9712V47.7414H56.9511V46.0942H56.6129V48.0518ZM58.9215 46.0942V48.0518H59.2596V46.0942H58.9215ZM61.1496 47.5988L60.5647 46.0942H60.1877L60.9944 48.0658H61.2938L62.1004 46.0942H61.7317L61.1496 47.5988ZM64.4422 46.0942H63.0063V48.0518H64.4561V47.7414H63.3445V47.2185H64.3174V46.9081H63.3445V46.4047H64.4422V46.0942ZM67.0834 48.0518L66.5595 47.3108C66.6279 47.2921 66.6903 47.2656 66.7466 47.231C66.803 47.1966 66.8515 47.1547 66.8922 47.1053C66.9328 47.0559 66.9647 46.999 66.9878 46.9346C67.0109 46.8703 67.0224 46.7972 67.0224 46.7151C67.0224 46.62 67.0058 46.5338 66.9726 46.4565C66.9392 46.379 66.8916 46.3138 66.8298 46.2607C66.7678 46.2076 66.6921 46.1665 66.6025 46.1376C66.5128 46.1088 66.4126 46.0942 66.3017 46.0942H65.4368V48.0518H65.775V47.3695H66.2033L66.6814 48.0518H67.0834ZM66.6759 46.7333C66.6759 46.8345 66.6399 46.9151 66.5673 46.9748C66.4952 47.0348 66.3978 47.0647 66.2754 47.0647H65.775V46.4047H66.2726C66.4006 46.4047 66.4999 46.4322 66.5702 46.4876C66.6408 46.5427 66.6759 46.6247 66.6759 46.7333ZM68.8597 47.2716L69.6304 46.0942H69.2394L68.6906 46.9612L68.1473 46.0942H67.7454L68.516 47.28V48.0518H68.8597V47.2716Z" fill="black"/>
</g>
<defs>
<clipPath id="clip0_8819_621">
<rect width="80" height="56" fill="white"/>
</clipPath>
</defs>
</svg>
