<svg width="54" height="23" viewBox="0 0 54 23" fill="none" xmlns="http://www.w3.org/2000/svg">
<path fill-rule="evenodd" clip-rule="evenodd" d="M35.1117 15.9997L38.468 2.54313e-06H51.0043L50.1659 4.00061H43.8957L43.4765 6.00024H48.8093L47.9723 10.0009H42.6381L42.219 12.0005H48.4892L47.6508 15.9997H35.1117Z" fill="#1E3378"/>
<path fill-rule="evenodd" clip-rule="evenodd" d="M0 15.9997C11.1499 10.6669 26.2393 7.2673 40.002 6.00024C43.7205 5.65837 47.405 5.46709 52.5329 5.46709C52.7324 5.46709 53.0661 5.40062 53.3333 5.33415L52.2982 10.2681C52.2426 10.534 51.799 10.6683 51.4667 10.6683C20.0234 10.6669 1.20059 16.0011 1.20059 16.0011H0V15.9997Z" fill="#E11B22"/>
<path fill-rule="evenodd" clip-rule="evenodd" d="M16.8842 15.9997L20.2391 0H26.2407L29.8085 7.2673L31.332 0H37.3322L33.9774 15.9997H27.9785L24.4649 8.46653L22.8858 15.9997H16.8842Z" fill="#1E3378"/>
<path fill-rule="evenodd" clip-rule="evenodd" d="M11.1498 9.3334L13.106 0H19.1063L16.758 11.2001C16.0309 14.6662 13.3326 15.9997 9.75253 15.9997H5.33273L6.33933 11.2001H8.34031C9.8068 11.2001 10.8704 10.6669 11.1498 9.3334Z" fill="#1E3378"/>
<path d="M30.3878 21.3122L30.514 20.4629H31.8475L31.9683 19.5649H30.6361L30.727 18.8906H32.1053L32.226 17.9926H30.0839L29.5169 22.2102H31.7593L31.8828 21.3122H30.3878Z" fill="#1E3378"/>
<path d="M35.1061 17.9926H34.1754L33.7359 18.7618C33.6694 18.8798 33.5921 19.0195 33.5053 19.1823C33.4375 18.9639 33.3995 18.8445 33.3927 18.8201L33.1146 17.9939H32.3183L32.9911 20.0655L31.7838 22.2116H32.7334L33.1214 21.5333C33.2109 21.3746 33.2842 21.243 33.3411 21.1358C33.3737 21.2471 33.4144 21.3786 33.4632 21.5306L33.6816 22.2116H34.5241L33.8553 20.2201L35.1047 17.9939L35.1061 17.9926Z" fill="#1E3378"/>
<path d="M37.2495 19.1091C37.2495 18.8784 37.2142 18.6749 37.1464 18.504C37.0745 18.3249 36.9714 18.1933 36.8438 18.112C36.7177 18.0333 36.5481 17.9926 36.3405 17.9926H35.1929L34.6231 22.2102H35.3868L35.5917 20.6908H35.8291C36.0679 20.6908 36.2279 20.6814 36.3202 20.661C36.4776 20.6271 36.6064 20.5755 36.7027 20.5077C36.7991 20.4399 36.8886 20.3422 36.97 20.216C37.05 20.0912 37.1152 19.9312 37.1694 19.7263C37.2223 19.5269 37.2481 19.3193 37.2481 19.1091M35.8345 18.8798H36.1126C36.3338 18.8798 36.3826 18.9042 36.388 18.9069C36.4165 18.9232 36.4382 18.949 36.4545 18.987C36.4748 19.0331 36.4857 19.0968 36.4857 19.1769C36.4857 19.303 36.4613 19.4197 36.4151 19.5228C36.3704 19.6205 36.3148 19.6883 36.2415 19.7317C36.1995 19.7562 36.0774 19.7982 35.7396 19.7982H35.7097L35.8345 18.8798Z" fill="#1E3378"/>
<path d="M39.2721 20.7315C39.2342 20.6339 39.1948 20.5471 39.1541 20.4724C39.3752 20.3951 39.5475 20.254 39.6683 20.0519C39.8094 19.8145 39.8813 19.5133 39.8813 19.1538C39.8813 18.9029 39.8446 18.6844 39.7727 18.504C39.6954 18.3127 39.5896 18.1784 39.458 18.1025C39.3291 18.0292 39.1609 17.9939 38.9411 17.9939H37.6971L37.1274 22.2116H37.8911L38.1136 20.562H38.2276C38.3524 20.562 38.3944 20.5918 38.4053 20.604C38.4528 20.6556 38.5274 20.779 38.6101 21.0761C38.7417 21.5469 38.8312 21.8982 38.876 22.1194L38.895 22.213H39.7076L39.671 22.0678C39.5258 21.4967 39.3915 21.049 39.2721 20.7329M38.3361 18.892H38.8177C39.0008 18.892 39.0415 18.9259 39.0415 18.9259C39.0931 18.9761 39.1202 19.0575 39.1202 19.1687C39.1202 19.2746 39.0971 19.3763 39.0524 19.4726C39.0103 19.5635 38.9547 19.6273 38.8814 19.668C38.8394 19.6924 38.7173 19.7317 38.3727 19.7317H38.2248L38.3374 18.8934L38.3361 18.892Z" fill="#1E3378"/>
<path d="M42.1794 20.4629L42.3002 19.5649H40.968L41.0589 18.8906H42.4372L42.5579 17.9926H40.4159L39.8474 22.2102H42.0913L42.2147 21.3122H40.7184L40.8459 20.4629H42.1794Z" fill="#1E3378"/>
<path d="M43.7774 18.8065C43.89 18.8065 43.9673 18.8404 44.0216 18.9123C44.084 18.9951 44.1206 19.1213 44.1328 19.2881L44.141 19.4048L44.8776 19.3532L44.8722 19.2406C44.8546 18.854 44.7555 18.5379 44.5751 18.3005C44.3879 18.0523 44.1206 17.9261 43.7815 17.9261C43.4423 17.9261 43.1846 18.0536 43.0055 18.306C42.8359 18.5461 42.7491 18.8486 42.7491 19.2081C42.7491 19.4129 42.7776 19.5961 42.8346 19.7507C42.8929 19.9094 42.9757 20.041 43.0788 20.1428C43.1764 20.2377 43.3243 20.3531 43.5319 20.4928C43.7774 20.6583 43.848 20.7288 43.871 20.7587C43.9185 20.8197 43.9416 20.8943 43.9416 20.9866C43.9416 21.0965 43.9117 21.186 43.852 21.262C43.7978 21.3298 43.7042 21.3624 43.5671 21.3624C43.3487 21.3624 43.2768 21.2755 43.2402 21.2104C43.2185 21.1711 43.1805 21.0598 43.1724 20.76L43.1683 20.6379L42.4371 20.6963V20.8021C42.4303 21.0802 42.4642 21.3298 42.5334 21.5469C42.608 21.7748 42.7383 21.9566 42.92 22.0854C43.1018 22.2143 43.3175 22.2794 43.5617 22.2794C43.9199 22.2794 44.2047 22.137 44.4055 21.8575C44.5982 21.5889 44.6972 21.2633 44.6972 20.8889C44.6972 20.5823 44.6294 20.3259 44.4978 20.1265C44.4069 19.9895 44.2115 19.8213 43.8995 19.6124C43.6689 19.4577 43.5807 19.3709 43.5454 19.3248C43.5034 19.2705 43.483 19.2013 43.483 19.1131C43.483 19.0182 43.5061 18.9422 43.5522 18.8825C43.5916 18.8323 43.6662 18.8079 43.7747 18.8079" fill="#1E3378"/>
<path d="M46.3808 19.611C46.1501 19.4563 46.062 19.3695 46.0267 19.3234C45.9846 19.2691 45.9643 19.1999 45.9643 19.1118C45.9643 19.0168 45.9874 18.9408 46.0335 18.8811C46.0728 18.8309 46.1474 18.8065 46.256 18.8065C46.3645 18.8065 46.4459 18.8404 46.5001 18.9123C46.5625 18.9951 46.5992 19.1213 46.61 19.2881L46.6182 19.4048L47.3534 19.3532L47.348 19.2406C47.3304 18.854 47.23 18.5379 47.0523 18.3005C46.8651 18.0523 46.5978 17.9261 46.2587 17.9261C45.9195 17.9261 45.6618 18.0536 45.4827 18.3073C45.3118 18.5474 45.2263 18.8499 45.2263 19.2081C45.2263 19.4129 45.2548 19.5961 45.3131 19.7507C45.3715 19.9094 45.4542 20.041 45.5573 20.1428C45.655 20.2377 45.8029 20.3531 46.0104 20.4928C46.256 20.6583 46.3279 20.7288 46.3496 20.7587C46.397 20.8197 46.4201 20.8943 46.4201 20.9866C46.4201 21.0965 46.3903 21.186 46.3306 21.262C46.2763 21.3298 46.1827 21.3624 46.0457 21.3624C45.8273 21.3624 45.7554 21.2755 45.7187 21.2104C45.697 21.1711 45.6591 21.0598 45.6509 20.76L45.6468 20.6379L44.917 20.6963V20.8021C44.9102 21.0802 44.9441 21.3298 45.0147 21.5469C45.0893 21.7748 45.2182 21.9566 45.3999 22.0854C45.5817 22.2143 45.7974 22.2794 46.0416 22.2794C46.3998 22.2794 46.6833 22.137 46.8854 21.8575C47.0781 21.5889 47.1771 21.2633 47.1771 20.8889C47.1771 20.5823 47.1093 20.3259 46.9777 20.1265C46.8868 19.9895 46.6914 19.8213 46.3808 19.6124" fill="#1E3378"/>
</svg>
