<svg width="80" height="56" viewBox="0 0 80 56" fill="none" xmlns="http://www.w3.org/2000/svg">
<g clip-path="url(#clip0_8819_7421)">
<path fill-rule="evenodd" clip-rule="evenodd" d="M33.0636 24.7403H38.134L35.6388 33.6818H39.1481L41.6433 24.7403H45.7374L46.68 23.6758H43.3643L43.8019 23.1792H47.126L47.5973 22.6491H44.1932L44.6308 21.9464H48.22L48.767 21.332H34.6247L33.0636 24.7403Z" fill="#ED3237"/>
<path fill-rule="evenodd" clip-rule="evenodd" d="M19.969 33.8039H10.3711L11.8438 31.4223L17.3644 31.4559L19.8765 21.4246H23.0786L20.516 31.4559L19.969 33.8039Z" fill="#ED3237"/>
<path fill-rule="evenodd" clip-rule="evenodd" d="M34.8856 33.6776H31.7718L31.2374 33.0843C29.7521 33.9722 27.9764 34.4224 26.2091 34.1615C24.0337 33.7323 22.7251 32.4111 22.9102 30.2525C23.2006 28.7461 23.8612 27.488 24.8374 26.4445C23.7476 24.2606 24.1473 22.7627 24.8458 21.4036H32.3735L31.1154 24.2733C30.1392 22.304 27.0507 22.8005 27.1727 25.4346L30.8587 29.5119C31.1743 29.1248 31.4941 28.2412 31.8097 27.2397L34.124 28.3927C33.7747 29.453 33.375 30.5092 32.828 31.3928L32.8364 31.4012L34.8856 33.6776ZM29.3986 31.0352L26.5458 28.0687C23.5835 30.2146 26.5878 33.7155 29.3986 31.0352Z" fill="#ED3237"/>
<path fill-rule="evenodd" clip-rule="evenodd" d="M47.0418 29.0028C47.0418 29.0196 47.0418 29.0449 47.0376 29.0827C47.0334 29.1164 47.0292 29.1585 47.0208 29.2048C47.0124 29.2469 47.004 29.2931 46.9913 29.3436C46.9787 29.3941 46.9661 29.4362 46.945 29.4783C46.9282 29.5162 46.9072 29.5498 46.8819 29.5793C46.8567 29.6045 46.8272 29.6171 46.7978 29.6171H45.1189L44.8874 30.7659H46.3139C46.3475 30.7659 46.3728 30.7785 46.3854 30.7995C46.4022 30.8248 46.4107 30.8584 46.4107 30.9005C46.4107 30.9215 46.4064 30.9468 46.4064 30.9805C46.4022 31.0141 46.3938 31.0562 46.3854 31.1025C46.3812 31.1446 46.3728 31.1908 46.3602 31.2371C46.3475 31.2834 46.3307 31.3255 46.3139 31.3634C46.297 31.4012 46.2718 31.4349 46.2508 31.4601C46.2255 31.4812 46.2003 31.4938 46.1708 31.4938H44.7444L44.4793 32.8193H46.1792C46.2087 32.8193 46.2339 32.8319 46.2466 32.8613C46.2592 32.8824 46.2676 32.9202 46.2676 32.9707C46.2676 32.9876 46.2676 33.0128 46.2634 33.0507C46.2634 33.0885 46.255 33.1306 46.2466 33.1727C46.2381 33.219 46.2297 33.2653 46.2171 33.3116C46.2045 33.3578 46.1918 33.3999 46.1708 33.442C46.154 33.4799 46.1329 33.5135 46.1077 33.5388C46.0825 33.5598 46.0572 33.5724 46.0277 33.5724H43.6588C43.6209 33.5724 43.5872 33.5682 43.5536 33.5556C43.5199 33.5472 43.4947 33.5262 43.4778 33.5009C43.4568 33.4757 43.44 33.4462 43.4358 33.4083C43.4273 33.3705 43.4273 33.3242 43.4358 33.2695L44.2563 29.1669C44.2773 29.0617 44.3236 28.9818 44.3909 28.9355C44.454 28.8892 44.5298 28.8639 44.6097 28.8639H46.9492C47.0124 28.8639 47.0418 28.9102 47.0418 29.0028ZM49.7306 31.1446L50.4543 33.2022C50.4796 33.2905 50.4964 33.3578 50.5006 33.4125C50.5048 33.463 50.488 33.5051 50.4543 33.5304C50.4207 33.5598 50.366 33.5767 50.2902 33.5851C50.2103 33.5935 50.1051 33.5935 49.9662 33.5935C49.8652 33.5935 49.7895 33.5935 49.7306 33.5893C49.6717 33.5851 49.6296 33.5767 49.5959 33.564C49.5623 33.5514 49.5412 33.5388 49.5286 33.5177C49.5118 33.5009 49.5034 33.4757 49.4907 33.4462L48.9185 31.7336L47.7109 33.4462C47.6898 33.4757 47.6688 33.5009 47.6435 33.5177C47.6225 33.5388 47.5888 33.5514 47.5468 33.564C47.5047 33.5767 47.4458 33.5851 47.3784 33.5893C47.3069 33.5935 47.2185 33.5935 47.1091 33.5935C46.9829 33.5935 46.8819 33.5935 46.8104 33.5851C46.7389 33.5767 46.6884 33.5598 46.6673 33.5346C46.6463 33.5093 46.6463 33.4672 46.6715 33.4168C46.6926 33.3663 46.7347 33.2989 46.7978 33.2148L48.3462 31.1404L47.6898 29.2258C47.6646 29.1417 47.6477 29.0743 47.6435 29.0196C47.6393 28.9691 47.6562 28.9313 47.6898 28.906C47.7193 28.8766 47.774 28.8597 47.8539 28.8555C47.9297 28.8471 48.0391 28.8429 48.1737 28.8429C48.2747 28.8429 48.3589 28.8471 48.4178 28.8513C48.4767 28.8555 48.523 28.8639 48.5566 28.8766C48.5903 28.8892 48.6155 28.906 48.6282 28.9271C48.645 28.9481 48.6576 28.9776 48.666 29.0112L49.1667 30.5471L50.2692 28.9902C50.286 28.9649 50.3071 28.9397 50.3323 28.9186C50.3533 28.9018 50.3828 28.885 50.4207 28.8724C50.4627 28.8639 50.5132 28.8555 50.5764 28.8513C50.6395 28.8471 50.7236 28.8429 50.8288 28.8429C50.9635 28.8429 51.0687 28.8471 51.1444 28.8555C51.2201 28.8597 51.2664 28.8766 51.2917 28.906C51.3127 28.9313 51.3127 28.9691 51.2917 29.0196C51.2706 29.0743 51.2286 29.1417 51.1696 29.2258L49.7306 31.1446ZM55.0198 30.0211C55.0198 30.1557 55.0029 30.2988 54.9735 30.4461C54.944 30.5933 54.8935 30.7406 54.8262 30.8795C54.7589 31.0225 54.6705 31.1572 54.5611 31.2834C54.4517 31.4096 54.3213 31.5233 54.1656 31.6242C54.0099 31.721 53.8248 31.801 53.6186 31.8557C53.4124 31.9146 53.1725 31.9398 52.8948 31.9398H52.4025L52.0996 33.4462C52.0954 33.4715 52.0827 33.4925 52.0659 33.5135C52.0449 33.5304 52.0154 33.5472 51.9733 33.5598C51.9313 33.5724 51.8808 33.5809 51.8176 33.5851C51.7545 33.5935 51.6746 33.5935 51.5862 33.5935C51.4936 33.5935 51.4221 33.5935 51.359 33.5851C51.3001 33.5809 51.2538 33.5724 51.2201 33.5598C51.1865 33.5472 51.1654 33.5304 51.1528 33.5135C51.1402 33.4967 51.136 33.4715 51.1444 33.4462L51.9944 29.209C52.0154 29.0954 52.0617 29.007 52.1374 28.9523C52.209 28.8934 52.2973 28.8639 52.4025 28.8639H53.4334C53.5597 28.8639 53.6733 28.8682 53.7701 28.8766C53.871 28.885 53.9678 28.9018 54.0646 28.9186C54.2119 28.9481 54.3465 28.9944 54.4643 29.0533C54.5822 29.1164 54.6789 29.1922 54.7631 29.2805C54.8472 29.3731 54.9104 29.4783 54.9524 29.6045C54.9945 29.7265 55.0198 29.8654 55.0198 30.0211ZM54.0141 30.1263C54.0141 30.0127 53.9846 29.9117 53.9299 29.8233C53.8752 29.7392 53.7869 29.6803 53.6733 29.6466C53.6186 29.6298 53.5639 29.6171 53.5008 29.6129C53.4376 29.6045 53.3661 29.6045 53.2904 29.6045H52.8696L52.5498 31.2035H52.9874C53.1263 31.2035 53.2441 31.1866 53.3409 31.153C53.4418 31.1235 53.526 31.0772 53.6017 31.0267C53.6775 30.972 53.7406 30.9089 53.7911 30.8374C53.8458 30.7617 53.8879 30.6859 53.9215 30.606C53.951 30.526 53.9762 30.4461 53.9889 30.3619C54.0057 30.282 54.0141 30.202 54.0141 30.1263ZM59.0424 29.8906C59.0424 30.0505 59.0214 30.202 58.9793 30.3535C58.9372 30.5092 58.8699 30.6522 58.7773 30.7869C58.6847 30.9258 58.5627 31.0478 58.4196 31.1572C58.2724 31.2666 58.0914 31.3549 57.881 31.4181C57.9989 31.4643 58.0956 31.5569 58.1756 31.6916C58.2555 31.8304 58.3229 32.0156 58.3734 32.2554L58.5543 33.2106C58.5669 33.2653 58.5753 33.3116 58.5837 33.3536C58.5922 33.3957 58.5964 33.4336 58.5964 33.463C58.5964 33.4841 58.5879 33.5051 58.5711 33.5219C58.5543 33.5388 58.529 33.5514 58.4828 33.564C58.4407 33.5767 58.386 33.5851 58.3144 33.5893C58.2429 33.5935 58.1503 33.5935 58.0409 33.5935C57.94 33.5935 57.8558 33.5935 57.7969 33.5851C57.738 33.5809 57.6875 33.5724 57.6538 33.5556C57.6202 33.543 57.5991 33.5262 57.5907 33.5051C57.5781 33.4841 57.5697 33.4588 57.5655 33.4294L57.3845 32.3859C57.3677 32.2638 57.3382 32.1586 57.3046 32.0661C57.2751 31.9735 57.2288 31.8977 57.1783 31.8346C57.1279 31.7715 57.0647 31.7252 56.9932 31.6958C56.9175 31.6663 56.8291 31.6495 56.7239 31.6495H56.4209L56.0633 33.4462C56.0633 33.4715 56.0507 33.4925 56.0296 33.5135C56.0086 33.5304 55.9791 33.5472 55.9413 33.5598C55.8992 33.5724 55.8487 33.5809 55.7856 33.5851C55.7225 33.5935 55.6425 33.5935 55.5499 33.5935C55.4574 33.5935 55.3858 33.5935 55.3269 33.5851C55.2638 33.5809 55.2175 33.5724 55.1839 33.5598C55.1502 33.5472 55.1292 33.5304 55.1165 33.5135C55.1039 33.4967 55.0997 33.4715 55.1081 33.4462L55.9665 29.1669C55.9875 29.0617 56.0296 28.9818 56.0927 28.9355C56.1601 28.8892 56.24 28.8639 56.3284 28.8639H57.5907C57.8137 28.8639 58.0115 28.885 58.1924 28.9271C58.3691 28.9691 58.5206 29.0323 58.6469 29.1164C58.7773 29.2006 58.8741 29.31 58.9414 29.4362C59.0087 29.5666 59.0424 29.7181 59.0424 29.8906ZM58.0157 30.0716C58.0157 30.0043 58.0031 29.9411 57.9778 29.8822C57.9568 29.8233 57.9189 29.7728 57.8684 29.7265C57.8179 29.6845 57.7506 29.655 57.6707 29.6298C57.5865 29.6045 57.4897 29.5961 57.3761 29.5961H56.8333L56.564 30.9342H57.0227C57.2036 30.9342 57.3593 30.9089 57.4855 30.8584C57.6117 30.8037 57.7127 30.7364 57.7927 30.6522C57.8684 30.5723 57.9273 30.4797 57.961 30.3787C57.9989 30.2778 58.0157 30.1768 58.0157 30.0716ZM62.9388 29.0028C62.9388 29.0196 62.9388 29.0449 62.9346 29.0827C62.9304 29.1164 62.922 29.1585 62.9177 29.2048C62.9093 29.2469 62.9009 29.2931 62.8883 29.3436C62.8757 29.3941 62.8588 29.4362 62.842 29.4783C62.8252 29.5162 62.7999 29.5498 62.7747 29.5793C62.7494 29.6045 62.7242 29.6171 62.6947 29.6171H61.0158L60.7844 30.7659H62.2108C62.2445 30.7659 62.2697 30.7785 62.2824 30.7995C62.2992 30.8248 62.3034 30.8584 62.3034 30.9005C62.3034 30.9215 62.3034 30.9468 62.2992 30.9805C62.295 31.0141 62.2908 31.0562 62.2824 31.1025C62.2782 31.1446 62.2655 31.1908 62.2529 31.2371C62.2403 31.2834 62.2277 31.3255 62.2066 31.3634C62.1898 31.4012 62.1688 31.4349 62.1435 31.4601C62.1183 31.4812 62.093 31.4938 62.0636 31.4938H60.6371L60.372 32.8193H62.0762C62.1056 32.8193 62.1267 32.8319 62.1393 32.8613C62.1561 32.8824 62.1646 32.9202 62.1646 32.9707C62.1646 32.9876 62.1603 33.0128 62.1603 33.0507C62.1561 33.0885 62.1519 33.1306 62.1435 33.1727C62.1351 33.219 62.1267 33.2653 62.1141 33.3116C62.1014 33.3578 62.0846 33.3999 62.0678 33.442C62.0509 33.4799 62.0299 33.5135 62.0047 33.5388C61.9794 33.5598 61.9542 33.5724 61.9205 33.5724H59.5557C59.5179 33.5724 59.48 33.5682 59.4505 33.5556C59.4169 33.5472 59.3916 33.5262 59.3706 33.5009C59.3496 33.4757 59.3369 33.4462 59.3285 33.4083C59.3201 33.3705 59.3243 33.3242 59.3327 33.2695L60.1532 29.1669C60.1743 29.0617 60.2164 28.9818 60.2837 28.9355C60.351 28.8892 60.4267 28.8639 60.5067 28.8639H62.842C62.9051 28.8639 62.9388 28.9102 62.9388 29.0028ZM66.1577 29.2258C66.1577 29.2469 66.1535 29.2763 66.1493 29.3142C66.1451 29.3478 66.1409 29.3899 66.1325 29.432C66.1283 29.4741 66.1157 29.5204 66.1072 29.5666C66.0946 29.6087 66.082 29.6508 66.0652 29.6887C66.0483 29.7265 66.0315 29.756 66.0105 29.7812C65.9894 29.8065 65.9684 29.8191 65.9473 29.8191C65.9137 29.8191 65.8716 29.8023 65.8211 29.7728C65.7706 29.7434 65.7075 29.7097 65.6318 29.6718C65.556 29.6382 65.4719 29.6045 65.3709 29.5751C65.2741 29.5414 65.1605 29.5288 65.0343 29.5288C64.9038 29.5288 64.7944 29.5456 64.7018 29.5835C64.6135 29.6171 64.5377 29.6676 64.4788 29.7265C64.4199 29.7854 64.3778 29.8528 64.3526 29.9285C64.3231 30 64.3105 30.0758 64.3105 30.1515C64.3105 30.2357 64.3316 30.3156 64.3736 30.383C64.4199 30.4503 64.4746 30.5092 64.5504 30.5681C64.6219 30.6228 64.7061 30.6775 64.7986 30.7322C64.8912 30.7869 64.988 30.8416 65.0848 30.9005C65.1773 30.9552 65.2741 31.0225 65.3667 31.0899C65.4592 31.1614 65.5434 31.2371 65.6191 31.3297C65.6907 31.4223 65.7496 31.5233 65.7917 31.6411C65.8337 31.7589 65.859 31.8977 65.859 32.0492C65.859 32.2764 65.8127 32.4868 65.7201 32.6846C65.6276 32.8782 65.4971 33.0465 65.3288 33.1937C65.1563 33.3368 64.9543 33.4504 64.7145 33.5304C64.4746 33.6145 64.2095 33.6566 63.9192 33.6566C63.7593 33.6566 63.6162 33.644 63.4816 33.6145C63.3511 33.5935 63.2291 33.5598 63.1281 33.5219C63.0272 33.4883 62.9388 33.4504 62.8715 33.4083C62.7999 33.3663 62.7452 33.3284 62.7116 33.2947C62.6779 33.2569 62.6611 33.2022 62.6611 33.1306C62.6611 33.1096 62.6653 33.0801 62.6695 33.0423C62.6737 33.0002 62.6821 32.9581 62.6905 32.916C62.6989 32.8697 62.7074 32.8235 62.72 32.7772C62.7326 32.7309 62.7452 32.6846 62.7621 32.6467C62.7789 32.6089 62.7999 32.5752 62.821 32.55C62.842 32.5289 62.863 32.5163 62.8841 32.5163C62.9262 32.5163 62.9767 32.5331 63.0314 32.571C63.0903 32.6089 63.1618 32.6509 63.246 32.6972C63.3301 32.7393 63.4311 32.7856 63.5489 32.8235C63.6625 32.8613 63.8014 32.8824 63.9655 32.8824C64.1086 32.8824 64.2348 32.8613 64.3442 32.8277C64.4536 32.7898 64.542 32.7393 64.6135 32.6762C64.6892 32.6131 64.7439 32.5415 64.7818 32.4574C64.8197 32.3774 64.8365 32.2849 64.8365 32.1881C64.8365 32.0955 64.8155 32.0156 64.7734 31.9525C64.7271 31.8809 64.6724 31.822 64.6009 31.7631C64.5293 31.7042 64.4452 31.6495 64.3568 31.599C64.2642 31.5485 64.1717 31.498 64.0791 31.4391C63.9823 31.3802 63.8897 31.3171 63.8014 31.2498C63.7088 31.1824 63.6289 31.1025 63.5573 31.0099C63.4858 30.9173 63.4269 30.8164 63.3848 30.6943C63.3385 30.5765 63.3175 30.4377 63.3175 30.282C63.3175 30.0632 63.3596 29.8612 63.4479 29.676C63.5363 29.4951 63.6583 29.3352 63.8098 29.2048C63.9655 29.0701 64.1506 28.9691 64.3652 28.8934C64.5798 28.8219 64.8197 28.784 65.0763 28.784C65.1984 28.784 65.3162 28.7924 65.4256 28.8092C65.535 28.8303 65.636 28.8513 65.7243 28.8808C65.8127 28.906 65.8926 28.9397 65.9558 28.9733C66.0189 29.007 66.061 29.0365 66.0862 29.0575C66.1115 29.0827 66.1283 29.108 66.1409 29.129C66.1493 29.1585 66.1577 29.1879 66.1577 29.2258ZM69.6207 29.2258C69.6207 29.2469 69.6207 29.2763 69.6165 29.3142C69.6123 29.3478 69.6081 29.3899 69.5997 29.432C69.5913 29.4741 69.5829 29.5204 69.5702 29.5666C69.5618 29.6087 69.545 29.6508 69.5324 29.6887C69.5155 29.7265 69.4945 29.756 69.4777 29.7812C69.4566 29.8065 69.4356 29.8191 69.4146 29.8191C69.3809 29.8191 69.3388 29.8023 69.2841 29.7728C69.2336 29.7434 69.1705 29.7097 69.099 29.6718C69.0232 29.6382 68.9391 29.6045 68.8381 29.5751C68.7371 29.5414 68.6277 29.5288 68.5015 29.5288C68.371 29.5288 68.2574 29.5456 68.169 29.5835C68.0765 29.6171 68.0049 29.6676 67.946 29.7265C67.8871 29.7854 67.845 29.8528 67.8156 29.9285C67.7903 30 67.7735 30.0758 67.7735 30.1515C67.7735 30.2357 67.7988 30.3156 67.8408 30.383C67.8829 30.4503 67.9418 30.5092 68.0176 30.5681C68.0891 30.6228 68.1733 30.6775 68.2658 30.7322C68.3584 30.7869 68.4552 30.8416 68.5477 30.9005C68.6445 30.9552 68.7413 31.0225 68.8339 31.0899C68.9264 31.1614 69.0106 31.2371 69.0821 31.3297C69.1579 31.4223 69.2168 31.5233 69.2589 31.6411C69.3009 31.7589 69.3262 31.8977 69.3262 32.0492C69.3262 32.2764 69.2799 32.4868 69.1873 32.6846C69.0948 32.8782 68.9643 33.0465 68.796 33.1937C68.6235 33.3368 68.4215 33.4504 68.1817 33.5304C67.9418 33.6145 67.6767 33.6566 67.3822 33.6566C67.2265 33.6566 67.0834 33.644 66.9488 33.6145C66.8141 33.5935 66.6963 33.5598 66.5953 33.5219C66.4944 33.4883 66.406 33.4504 66.3345 33.4083C66.2671 33.3663 66.2124 33.3284 66.1788 33.2947C66.1451 33.2569 66.1283 33.2022 66.1283 33.1306C66.1283 33.1096 66.1325 33.0801 66.1367 33.0423C66.1409 33.0002 66.1493 32.9581 66.1577 32.916C66.1661 32.8697 66.1746 32.8235 66.1872 32.7772C66.1998 32.7309 66.2124 32.6846 66.2293 32.6467C66.2461 32.6089 66.2671 32.5752 66.284 32.55C66.305 32.5289 66.326 32.5163 66.3513 32.5163C66.3934 32.5163 66.4397 32.5331 66.4986 32.571C66.5575 32.6089 66.6248 32.6509 66.7132 32.6972C66.7973 32.7393 66.8983 32.7856 67.0161 32.8235C67.1297 32.8613 67.2686 32.8824 67.4327 32.8824C67.5758 32.8824 67.702 32.8613 67.8114 32.8277C67.9166 32.7898 68.0092 32.7393 68.0807 32.6762C68.1564 32.6131 68.2111 32.5415 68.2448 32.4574C68.2869 32.3774 68.3037 32.2849 68.3037 32.1881C68.3037 32.0955 68.2827 32.0156 68.2364 31.9525C68.1943 31.8809 68.1396 31.822 68.0639 31.7631C67.9965 31.7042 67.9124 31.6495 67.824 31.599C67.7314 31.5485 67.6389 31.498 67.5421 31.4391C67.4495 31.3802 67.3569 31.3171 67.2644 31.2498C67.176 31.1824 67.0919 31.1025 67.0245 31.0099C66.9488 30.9173 66.8941 30.8164 66.852 30.6943C66.8057 30.5765 66.7847 30.4377 66.7847 30.282C66.7847 30.0632 66.8268 29.8612 66.9151 29.676C67.0035 29.4951 67.1213 29.3352 67.277 29.2048C67.4327 29.0701 67.6178 28.9691 67.8324 28.8934C68.047 28.8219 68.2869 28.784 68.5435 28.784C68.6656 28.784 68.7834 28.7924 68.8928 28.8092C69.0022 28.8303 69.099 28.8513 69.1915 28.8808C69.2799 28.906 69.3598 28.9397 69.423 28.9733C69.4861 29.007 69.5282 29.0365 69.5534 29.0575C69.5787 29.0827 69.5955 29.108 69.6081 29.129C69.6165 29.1585 69.6207 29.1879 69.6207 29.2258Z" fill="#ED3237"/>
</g>
<defs>
<clipPath id="clip0_8819_7421">
<rect width="80" height="56" fill="white"/>
</clipPath>
</defs>
</svg>
