<svg width="24" height="24" viewBox="0 0 24 24" fill="none" xmlns="http://www.w3.org/2000/svg">
<mask id="mask0_10189_48859" style="mask-type:alpha" maskUnits="userSpaceOnUse" x="0" y="0" width="24" height="24">
<rect width="24" height="24" rx="12" fill="#DC8622"/>
</mask>
<g mask="url(#mask0_10189_48859)">
<rect width="24" height="24" fill="#F7F7F9"/>
<path d="M11.9999 24.0013C15.4158 24.0013 18.4809 22.6068 20.5713 20.3976C18.7541 17.7896 15.5941 16.0635 11.9999 16.0635C8.40566 16.0635 5.24569 17.7896 3.42847 20.3976C5.51889 22.6068 8.58397 24.0013 11.9999 24.0013Z" fill="#DC8622"/>
<path d="M11.9999 14.9281C14.3997 14.9281 16.3451 13.1216 16.3451 10.8932C16.3451 8.66485 14.3997 6.8584 11.9999 6.8584C9.60011 6.8584 7.65469 8.66485 7.65469 10.8932C7.65469 13.1216 9.60011 14.9281 11.9999 14.9281Z" fill="#DC8622"/>
</g>
</svg>
